<?xml version="1.0" standalone="no"?>
<!DOCTYPE svg PUBLIC "-//W3C//DTD SVG 20010904//EN"
 "http://www.w3.org/TR/2001/REC-SVG-20010904/DTD/svg10.dtd">
<svg version="1.0" xmlns="http://www.w3.org/2000/svg"
 width="16.000000pt" height="16.000000pt" viewBox="0 0 16.000000 16.000000"
 preserveAspectRatio="xMidYMid meet">
<metadata>
Created by potrace 1.11, written by Peter Selinger 2001-2013
</metadata>
<g transform="translate(0.000000,16.000000) scale(0.001563,-0.001563)"
fill="#000000" stroke="none">
<path d="M4869 9476 c-2 -2 -47 -6 -99 -10 -113 -7 -144 -11 -320 -38 -185
-28 -287 -49 -455 -95 -49 -13 -99 -26 -111 -28 -40 -9 -280 -94 -409 -145
-168 -67 -432 -198 -585 -291 -66 -41 -129 -78 -138 -84 -123 -71 -450 -327
-606 -475 -175 -166 -370 -377 -462 -501 -10 -15 -44 -60 -75 -100 -200 -266
-401 -625 -529 -944 -17 -44 -40 -100 -50 -125 -75 -188 -178 -578 -215 -820
-3 -19 -7 -46 -10 -60 -2 -14 -7 -52 -11 -85 -3 -33 -8 -68 -9 -77 -20 -103
-28 -704 -12 -853 17 -156 15 -144 53 -390 3 -22 10 -60 16 -85 5 -25 12 -58
15 -75 3 -16 16 -73 30 -125 13 -52 26 -104 29 -114 32 -160 215 -628 327
-838 109 -204 268 -464 321 -525 6 -7 29 -37 51 -68 271 -379 713 -796 1120
-1057 158 -101 183 -117 260 -159 452 -244 909 -406 1365 -483 19 -3 46 -8 60
-11 14 -3 45 -8 70 -11 25 -3 56 -7 70 -9 14 -3 57 -7 95 -11 39 -3 79 -8 90
-11 35 -9 617 -11 700 -3 185 18 215 21 237 25 13 3 48 8 78 11 30 3 62 7 70
9 8 3 51 11 95 19 44 8 94 18 110 21 56 11 230 55 300 75 39 12 77 23 85 25 8
2 80 26 159 54 253 90 518 213 749 348 91 54 346 222 387 255 11 9 56 45 100
79 714 557 1255 1361 1500 2234 28 99 66 256 80 325 4 21 16 91 21 118 2 12 6
34 9 50 3 15 7 47 10 72 3 25 10 72 15 105 18 119 25 264 25 520 0 321 -7 429
-47 675 -11 69 -21 134 -22 145 -2 11 -6 29 -9 40 -3 11 -9 36 -12 55 -9 53
-55 237 -76 305 -11 33 -21 69 -23 80 -6 24 -78 235 -101 290 -19 48 -27 66
-54 127 -12 26 -21 50 -21 52 0 15 -128 267 -214 421 -45 81 -164 264 -240
368 -256 352 -567 670 -896 918 -58 43 -110 83 -115 87 -26 21 -225 152 -231
152 -4 0 -15 6 -23 14 -9 7 -38 26 -66 41 -27 15 -72 41 -100 56 -220 126
-601 286 -860 360 -185 53 -416 106 -545 124 -25 3 -70 10 -100 15 -30 5 -86
12 -125 15 -38 4 -81 9 -95 12 -29 5 -625 15 -631 9z m1866 -1210 c156 -9 246
-27 415 -82 230 -76 457 -217 645 -399 83 -81 218 -265 288 -395 59 -108 127
-295 151 -415 4 -16 9 -41 11 -55 3 -14 8 -45 11 -70 3 -25 7 -56 10 -70 7
-35 6 -269 -1 -327 -64 -522 -336 -955 -777 -1236 -154 -98 -403 -192 -588
-222 -129 -20 -336 -26 -461 -13 -90 10 -245 44 -338 75 -73 24 -252 107 -336
155 -87 51 -250 179 -308 243 -10 11 -37 40 -61 65 -198 211 -358 544 -401
835 -4 22 -9 51 -11 65 -10 47 -11 305 -3 375 14 113 20 144 44 238 9 34 18
69 20 77 7 36 81 211 118 280 82 156 164 267 292 395 227 228 518 388 818 449
122 25 129 26 227 33 52 3 96 7 98 8 2 2 11 1 20 -1 9 -1 62 -5 117 -8z
m-2910 -3011 c259 -31 538 -142 755 -298 172 -124 310 -270 433 -459 64 -98
159 -306 183 -398 2 -8 12 -49 23 -90 11 -41 23 -95 26 -120 3 -25 9 -71 14
-103 9 -69 7 -300 -4 -372 -9 -65 -22 -135 -28 -160 -5 -18 -21 -85 -31 -125
-10 -40 -83 -213 -118 -280 -34 -65 -122 -205 -138 -220 -3 -3 -18 -23 -35
-45 -16 -22 -75 -85 -130 -140 -312 -308 -721 -476 -1160 -476 -71 0 -139 2
-150 5 -11 2 -47 7 -80 10 -181 21 -433 111 -617 221 -62 37 -115 71 -118 74
-3 4 -30 26 -60 50 -139 109 -318 310 -386 436 -6 11 -27 49 -47 85 -45 83
-132 309 -142 370 -1 3 -5 23 -10 45 -4 22 -10 47 -11 55 -2 8 -6 39 -10 69
-3 30 -8 64 -10 75 -6 30 -6 268 0 308 3 18 8 56 11 83 5 42 14 85 40 195 2 8
10 35 18 60 179 566 643 991 1222 1119 50 11 117 23 150 26 33 4 61 8 63 10 5
5 291 -3 347 -10z"/>
<path d="M6628 7816 c-1 -2 -43 -6 -93 -9 -262 -16 -500 -117 -704 -297 -67
-58 -182 -191 -215 -248 -90 -155 -146 -304 -173 -467 -9 -57 -9 -269 0 -340
15 -112 56 -245 109 -355 85 -177 225 -339 395 -457 120 -85 316 -167 443
-188 25 -4 54 -9 65 -12 35 -8 266 -10 309 -2 22 4 63 10 90 14 27 3 53 8 58
11 5 3 20 7 34 10 40 7 173 62 244 101 254 138 457 374 550 638 36 104 56 186
66 270 7 61 7 219 0 265 -2 14 -7 48 -11 75 -4 28 -18 88 -31 134 -135 466
-556 811 -1034 847 -41 3 -80 7 -87 9 -6 2 -13 2 -15 1z"/>
<path d="M3490 4803 c-93 -13 -196 -37 -290 -69 -8 -3 -17 -5 -20 -5 -3 0 -48
-23 -101 -51 -313 -163 -530 -435 -613 -766 -73 -293 -40 -580 97 -845 181
-351 538 -594 932 -633 60 -6 214 -5 265 2 76 10 83 11 155 29 421 104 761
453 861 884 24 102 27 128 28 251 2 183 -23 316 -88 475 -142 349 -480 632
-838 704 -29 6 -66 13 -83 17 -34 6 -267 12 -305 7z"/>
</g>
</svg>
